<?xml version="1.0" encoding="utf-8"?>
<!-- Generator: Adobe Illustrator 24.0.1, SVG Export Plug-In . SVG Version: 6.00 Build 0)  -->
<svg version="1.1" id="Capa_1" xmlns="http://www.w3.org/2000/svg" xmlns:xlink="http://www.w3.org/1999/xlink" x="0px" y="0px"
	 viewBox="0 0 41.6 36.4" style="enable-background:new 0 0 41.6 36.4;" xml:space="preserve">
<style type="text/css">
	.st0{fill:#FFFFFF;}
</style>
<g>
	<g>
		<path class="st0" d="M30.9,0c1.8,0,3.4,0.4,4.8,1.2c2.4,1.5,4.2,4,5.2,7.6c1,3.6,1.1,7.3,0.1,11.2c-1.1,4.3-3.3,7.9-6.5,10.9
			c-3.1,2.9-6.8,4.7-10.9,5.6v-3.7c2.9-1.1,5.3-2.8,7.5-5.2c2.2-2.5,3.8-5.1,4.6-7.9c0.3-1.1,0.5-2.4,0.5-3.8c0-1.4-0.4-1.7-1.3-0.9
			c-1.2,0.7-2.5,1.1-3.9,1.1c-2.2,0.1-4-0.7-5.6-2.2c-1.6-1.6-2.4-3.5-2.4-5.6c0-2.3,0.7-4.2,2.2-5.7C26.7,0.8,28.6,0,30.9,0z M8,0
			c1.8,0,3.4,0.4,4.8,1.2c2.4,1.5,4.2,4,5.2,7.6c1,3.6,1.1,7.3,0.1,11.2c-1.1,4.3-3.3,7.9-6.5,10.9c-3.1,2.9-6.8,4.7-10.9,5.6v-3.7
			c2.9-1.1,5.3-2.8,7.5-5.2c2.2-2.5,3.8-5.1,4.6-7.9c0.3-1.1,0.5-2.4,0.5-3.8c0-1.4-0.4-1.7-1.3-0.9c-1.2,0.7-2.5,1.1-3.9,1.1
			c-2.2,0.1-4-0.7-5.6-2.2C0.8,12.1,0,10.2,0,8.1c0-2.3,0.8-4.2,2.2-5.7C3.9,0.8,5.8,0,8,0z"/>
	</g>
</g>
</svg>
