<?xml version="1.0" encoding="utf-8"?>
<!-- Generator: Adobe Illustrator 24.0.1, SVG Export Plug-In . SVG Version: 6.00 Build 0)  -->
<svg version="1.1" id="Capa_1" xmlns="http://www.w3.org/2000/svg" xmlns:xlink="http://www.w3.org/1999/xlink" x="0px" y="0px"
	 viewBox="0 0 41.6 36.4" style="enable-background:new 0 0 41.6 36.4;" xml:space="preserve">
<style type="text/css">
	.st0{fill:#FFFFFF;}
</style>
<g>
	<g>
		<path class="st0" d="M10.8,36.4C9,36.4,7.4,36,6,35.2c-2.4-1.5-4.2-4-5.2-7.6c-1-3.6-1.1-7.3-0.1-11.2c1.1-4.3,3.3-7.9,6.5-10.9
			c3.1-2.9,6.8-4.7,10.9-5.6v3.7c-2.9,1.1-5.3,2.8-7.5,5.2C8.4,11.4,6.8,14,6,16.8c-0.3,1.1-0.5,2.4-0.5,3.8c0,1.4,0.4,1.7,1.3,0.9
			c1.2-0.7,2.5-1.1,3.9-1.1c2.2-0.1,4,0.7,5.6,2.2c1.6,1.6,2.4,3.5,2.4,5.6c0,2.3-0.7,4.2-2.2,5.7C14.9,35.7,13,36.4,10.8,36.4z
			 M33.6,36.4c-1.8,0-3.4-0.4-4.8-1.2c-2.4-1.5-4.2-4-5.2-7.6c-1-3.6-1.1-7.3-0.1-11.2c1.1-4.3,3.3-7.9,6.5-10.9
			c3.1-2.9,6.8-4.7,10.9-5.6v3.7c-2.9,1.1-5.3,2.8-7.5,5.2c-2.2,2.5-3.8,5.1-4.6,7.9c-0.3,1.1-0.5,2.4-0.5,3.8
			c0,1.4,0.4,1.7,1.3,0.9c1.2-0.7,2.5-1.1,3.9-1.1c2.2-0.1,4,0.7,5.6,2.2c1.6,1.6,2.4,3.5,2.4,5.6c0,2.3-0.8,4.2-2.2,5.7
			C37.8,35.7,35.9,36.4,33.6,36.4z"/>
	</g>
</g>
</svg>
