<?xml version="1.0" encoding="utf-8"?>
<!-- Generator: Adobe Illustrator 24.0.1, SVG Export Plug-In . SVG Version: 6.00 Build 0)  -->
<svg version="1.1" id="Capa_1" xmlns="http://www.w3.org/2000/svg" xmlns:xlink="http://www.w3.org/1999/xlink" x="0px" y="0px"
	 viewBox="0 0 14633 1709.9" style="enable-background:new 0 0 14633 1709.9;" xml:space="preserve">
<style type="text/css">
	.st0{fill:#C7D7D0;}
	.st1{fill:#FCF6F2;}
	.st2{fill:#BFA881;}
</style>
<g>
	<path class="st0" d="M14633,0c-2281.2,791.7-5213.2,469.6-5213.2,469.6C4280.3,204.9,1421.1,562.6,0,867.8v842.1h14633V0z"/>
	<path class="st1" d="M0,1709.9h14632c-223.1-130.1-453.5-280.4-690.5-453.8c0,0-2102.4-1679.2-5349.4-1087.9
		c0,0-5243.3,1193.3-8592,800.9V1709.9z"/>
	<path class="st2" d="M14632.4,690.3c-122.6,26.5-912,191.4-2041.2,298.7c-1130.2,107.5-2841.4,177.7-4575.9-98.2
		c-13.7-2-1393.5-198.5-3069.1-347.5C3961.9,455.8,3069.7,401.5,2294.3,382C1352.1,358.4,580.7,386.3,0,465v12
		c1328.7-180.3,3417.6-57.7,4945,78.2c1675.4,149,3054.8,345.5,3068.5,347.5c766.5,121.9,1592.4,187,2454.8,193.5
		c48.3,0.4,96.7,0.5,145.2,0.5c644.8,0,1309.8-32.2,1979-95.8c1122.5-106.8,1909.4-270.3,2039.9-298.4V690.3z"/>
</g>
</svg>
