<?xml version="1.0" encoding="utf-8"?>
<!-- Generator: Adobe Illustrator 24.0.1, SVG Export Plug-In . SVG Version: 6.00 Build 0)  -->
<svg version="1.1" id="Capa_1" xmlns="http://www.w3.org/2000/svg" xmlns:xlink="http://www.w3.org/1999/xlink" x="0px" y="0px"
	 viewBox="0 0 8192 1504.7" style="enable-background:new 0 0 8192 1504.7;" xml:space="preserve">
<style type="text/css">
	.st0{fill:#DFEBE6;}
	.st1{fill:#C7D7D0;}
	.st2{fill:#FCF6F2;}
	.st3{fill:#BFA881;}
</style>
<g>
	<path class="st0" d="M8192,740.5c-246.2-64.4-1126-477.4-2256.9-230.4c-2678.8,585.1-4214.5-128.8-4214.5-128.8
		C923.8,9,204.1-4.2,0,0.6v33.2c482.1-73.1,1302.3,216.6,1794.3,486.7c671.6,368.7,2610.7,735.6,3845.8,206.7
		C6821.5,221.3,7953.5,825,8192,947.8V740.5z"/>
	<path class="st1" d="M8192,937.6C7953.6,814.8,6821.5,211.1,5640.1,717c-1235,529-3174.2,162.1-3845.9-206.6
		C1302.3,240.3,482.1-49.3,0,23.8V335c91.4,122.2,442.9,523.3,1146.6,564.4C1978.2,948.1,2202,782,2721.7,988.5
		c519.7,206.7,531.7,506.6,1595.1,502.4c1063.5-4.1,2430.6-595.7,3122.2-514.6c302.9,35.5,559.8,147.9,752.9,263.1V937.6L8192,937.6
		L8192,937.6z"/>
	<g>
		<path class="st2" d="M7439.1,966.2c-691.6-81-2058.8,510.5-3122.2,514.6c-1063.5,4.1-1075.4-295.7-1595.1-502.4
			s-743.6-40.5-1575.1-89.1C443,848.2,91.5,447.3,0.1,324.9v1179.9H8192v-275.4C7998.9,1114.2,7742.1,1001.8,7439.1,966.2z"/>
	</g>
	<path class="st3" d="M8192,1445.5c-82.7-58.7-171.8-115.8-264.5-169.9c-105.2-61.2-215.8-118.5-328.5-170.4
		c-258.2-118.7-527.3-208.8-799.7-267.6c-80-17.2-162.2-29.6-244.4-36.4c-78.7-6.7-160.2-8.6-242-5.8
		c-152,5.3-309.5,26.4-481.9,64.6c-322,71.4-647.7,192.3-992.6,320.3l-1.5,0.5c-92.3,34.3-193.2,66.6-299.8,96.2
		c-120.3,33.3-245.1,62.3-370.9,86c-273,51.5-542.9,77.5-803.6,77.5c-26.6,0-53.2-0.3-79.6-0.8c-343.1-7-663.1-60.4-951.2-158.7
		c-335.1-114.2-629.5-290.6-875-523.9c-139.6-132.7-290-249.2-446.8-346.3c-133.4-82.8-273.6-152.7-416.4-207.8
		C478,158.7,360,123.7,243.1,99.1C159.3,81.3,77.5,69.4,0.1,63.3v8.4c242.3,19.2,855.5,125.5,1451.2,691.5
		c64.7,61.4,133.5,119.6,204.5,172.9c68.7,51.6,141.4,99.9,216,143.9c141.6,83.3,295.6,153.7,457.5,208.9
		c288.8,98.5,609.7,152,953.6,159.2c149.3,3,304.1-2.6,460.1-17.1c140.3-13,283.3-33,424.8-59.8c126.1-23.8,251.1-52.8,371.6-86.2
		c106.8-29.6,208-62,300.5-96.4l1.5-0.5c344.6-127.8,670.1-248.6,991.5-319.9c359.5-79.8,666.1-86.8,964.7-22.3
		C7468.9,991,7958,1289,8192,1455.7V1445.5L8192,1445.5L8192,1445.5z"/>
</g>
</svg>
