<?xml version="1.0" encoding="utf-8"?>
<!-- Generator: Adobe Illustrator 24.0.1, SVG Export Plug-In . SVG Version: 6.00 Build 0)  -->
<svg version="1.1" id="Capa_1" xmlns="http://www.w3.org/2000/svg" xmlns:xlink="http://www.w3.org/1999/xlink" x="0px" y="0px"
	 viewBox="0 0 585.8 594.7" style="enable-background:new 0 0 585.8 594.7;" xml:space="preserve">
<style type="text/css">
	.st0{opacity:0.9;}
	.st1{fill:#BFA881;}
</style>
<g>
	<g class="st0">
		<path class="st1" d="M298.8,575.5c-152.5,0-276.6-124.1-276.6-276.6c0-152.5,124.1-276.6,276.6-276.6
			c152.5,0,276.6,124.1,276.6,276.6C575.5,451.4,451.4,575.5,298.8,575.5z M298.8,25.6c-150.6,0-273.2,122.6-273.2,273.2
			C25.6,449.4,148.2,572,298.8,572C449.5,572,572,449.4,572,298.8C572,148.2,449.5,25.6,298.8,25.6z"/>
	</g>
	<g class="st0">
		<path class="st1" d="M276.6,568.1C124.1,568.1,0,444,0,291.4C0,138.9,124.1,14.8,276.6,14.8c152.5,0,276.6,124.1,276.6,276.6
			C553.3,444,429.2,568.1,276.6,568.1z M276.6,18.2C126,18.2,3.5,140.8,3.5,291.4S126,564.6,276.6,564.6
			c150.6,0,273.2-122.6,273.2-273.2S427.3,18.2,276.6,18.2z"/>
	</g>
	<g class="st0">
		<path class="st1" d="M309.2,553.3c-152.5,0-276.6-124.1-276.6-276.6C32.5,124.1,156.6,0,309.2,0c152.5,0,276.6,124.1,276.6,276.6
			C585.8,429.2,461.7,553.3,309.2,553.3z M309.2,3.5C158.5,3.5,36,126,36,276.6s122.6,273.2,273.2,273.2
			c150.6,0,273.2-122.6,273.2-273.2S459.8,3.5,309.2,3.5z"/>
	</g>
	<g class="st0">
		<path class="st1" d="M303.2,594.7C150.7,594.7,26.6,470.6,26.6,318S150.7,41.4,303.2,41.4c152.5,0,276.6,124.1,276.6,276.6
			S455.8,594.7,303.2,594.7z M303.2,44.8C152.6,44.8,30.1,167.4,30.1,318s122.6,273.2,273.2,273.2c150.6,0,273.2-122.6,273.2-273.2
			S453.9,44.8,303.2,44.8z"/>
	</g>
	<g class="st0">
		<path class="st1" d="M273.7,586.9C127.9,586.9,9.2,468.3,9.2,322.5C9.2,176.6,127.9,58,273.7,58c145.8,0,264.5,118.6,264.5,264.5
			C538.1,468.3,419.5,586.9,273.7,586.9z M273.7,61.5c-143.9,0-261,117.1-261,261s117.1,261,261,261c143.9,0,261-117.1,261-261
			S417.6,61.5,273.7,61.5z"/>
	</g>
</g>
</svg>
