<?xml version="1.0" encoding="utf-8"?>
<!-- Generator: Adobe Illustrator 24.0.1, SVG Export Plug-In . SVG Version: 6.00 Build 0)  -->
<svg version="1.1" id="Capa_1" xmlns="http://www.w3.org/2000/svg" xmlns:xlink="http://www.w3.org/1999/xlink" x="0px" y="0px"
	 viewBox="0 0 118 25.6" style="enable-background:new 0 0 118 25.6;" xml:space="preserve">
<style type="text/css">
	.st0{fill:#BF862D;}
</style>
<path class="st0" d="M111.2,7.1c-10.9-3.3-25.8-1.3-36.9-0.8c-13.9,0.7-27.8,2-41.7,2.6c-6.1,0.3-12.6,0.8-18.7,0
	c-1.9-0.3-3.8-0.7-5.6-1.2C6.8,7.2,5.4,6.7,4,6.2C3.3,4,3.9,3.3,5.7,4.1C5.5,5.7,8,6.1,8.3,4.5c0.3-1.9,0.4-1.9,0-3.5
	c-0.1-0.5-0.6-0.7-1-0.8c-4.4-1-9.9,4-5.9,7.6c6.7,5.9,22.3,4,29.9,3.7c17.4-0.7,34.7-2.6,52.1-3c7.8-0.2,25.6-2.9,30.4,3.9
	c1.7,2.5,2.2,5.4-0.2,8c-1.6,1.7-5.2,2.7-7.3,1c-6.9-5.3,4.1-5,2.1-1.8c-0.9,1.4,1.5,2.5,2.3,1.1c4-6.4-8.4-9-9.9-3.6
	c-0.9,3.5,4.5,7.8,7.3,8.4c4.6,1,8.5-3.7,9.5-7.8C119,12.4,116.3,8.6,111.2,7.1z"/>
</svg>
